<?xml version="1.0" encoding="utf-8"?>
<!-- Generator: Adobe Illustrator 25.0.0, SVG Export Plug-In . SVG Version: 6.00 Build 0)  -->
<svg version="1.1" xmlns="http://www.w3.org/2000/svg" xmlns:xlink="http://www.w3.org/1999/xlink" x="0px" y="0px"
	 viewBox="0 0 1080 1080" style="enable-background:new 0 0 1080 1080;" xml:space="preserve">
<style type="text/css">
	.st0{opacity:0.5;}
	.st1{fill:#212F59;}
	.st2{fill:#FFFFFF;}
	.st3{font-family:'Directo-Bold';}
	.st4{font-size:220px;}
	.st5{font-family:'MicrosoftJhengHeiUIBold';}
	.st6{font-size:80px;}
</style>
<g class="st0">
</g>
<g>
</g>
<g id="Layer_1">
	<g>
		<path class="st1" d="M871.71,424.05v229.33L758.1,710.97c-24.91,31.71-56.88,58.02-92.74,76.23
			c-39.07,19.85-81.25,29.92-125.36,29.92s-86.29-10.07-125.36-29.92c-35.85-18.21-67.83-44.52-92.74-76.23l-113.61-57.59V424.05
			l117.08-59.35C378.28,299.93,456.25,262.88,540,262.88s161.72,37.05,214.64,101.82L871.71,424.05z"/>
		<path class="st2" d="M851.71,436.33V641.1l-106.68,54.07C698.08,757.11,623.71,797.12,540,797.12
			c-83.71,0-158.08-40.01-205.03-101.95L228.29,641.1V436.33l109.96-55.74c47.09-59.52,119.96-97.71,201.75-97.71
			c81.79,0,154.66,38.19,201.75,97.71L851.71,436.33z"/>
		<rect x="224.62" y="437.61" class="st1" width="630.75" height="204.78"/>
		<g>
			<path class="st1" d="M546.06,320.39c3.15-11.09,11.64-18.35,19.17-16.29c7.39,2.19,10.95,12.87,7.8,23.96
				s-11.77,18.35-19.17,16.16C546.34,342.16,542.91,331.48,546.06,320.39z"/>
			<path class="st1" d="M481.17,359.27c-5.89-8.49-5.34-19.03,1.1-23.41c6.44-4.38,16.43-1.09,22.18,7.53
				c5.89,8.49,5.34,18.89-1.1,23.27C496.91,371.19,487.05,367.76,481.17,359.27z"/>
			<path class="st1" d="M536.48,358.86c16.98-2.05,29.85,10.68,35.05,15.88c6.85,6.71,17.8,17.53,15.33,31.22
				c-1.78,9.58-9.86,19.71-18.89,20.4c-12.19,0.96-16.57-15.88-28.75-14.92c-10.95,0.82-12.6,14.79-23.82,15.33
				c-9.31,0.68-19.58-8.63-22.04-18.48c-3.42-14.1,9.72-26.7,18.48-34.91C518.82,366.67,525.8,360.1,536.48,358.86z"/>
			<path class="st1" d="M510.19,328.06c-3.15-11.09,0.27-21.77,7.67-23.96c7.53-2.05,16.16,5.2,19.3,16.29
				c3.15,11.09-0.41,21.77-7.8,23.82C521.83,346.4,513.34,339.15,510.19,328.06z"/>
			<path class="st1" d="M597.81,335.86c6.44,4.38,6.85,14.92,0.96,23.41c-5.75,8.49-15.75,11.91-22.18,7.39
				c-6.44-4.38-6.85-14.79-1.1-23.27C581.38,334.77,591.24,331.48,597.81,335.86z"/>
		</g>
		<text transform="matrix(1 0 0 1 235.1934 611.2632)" class="st2 st3 st4">Smart</text>
		<text transform="matrix(1 0 0 1 445.6834 745.5521)" class="st1 st5 st6">PETS</text>
	</g>
</g>
</svg>
